<?xml version="1.0" encoding="UTF-8" standalone="no"?>
<!-- Generator: Adobe Illustrator 17.1.0, SVG Export Plug-In . SVG Version: 6.00 Build 0)  -->

<svg
   xmlns:dc="http://purl.org/dc/elements/1.1/"
   xmlns:cc="http://creativecommons.org/ns#"
   xmlns:rdf="http://www.w3.org/1999/02/22-rdf-syntax-ns#"
   xmlns:svg="http://www.w3.org/2000/svg"
   xmlns="http://www.w3.org/2000/svg"
   xmlns:sodipodi="http://sodipodi.sourceforge.net/DTD/sodipodi-0.dtd"
   xmlns:inkscape="http://www.inkscape.org/namespaces/inkscape"
   version="1.1"
   id="Layer_1"
   x="0px"
   y="0px"
   viewBox="-61 0 1024 3072"
   enable-background="new -61 0 392.6 40.8"
   xml:space="preserve"
   inkscape:version="0.48.5 r10040"
   width="100%"
   height="100%"
   sodipodi:docname="diffuse.svg"
   inkscape:export-filename="/home/forest/projects/3d/vehicles/spacex/f9r-v2/img/diffuse.png"
   inkscape:export-xdpi="360"
   inkscape:export-ydpi="360"><metadata
     id="metadata3091"><rdf:RDF><cc:Work
         rdf:about=""><dc:format>image/svg+xml</dc:format><dc:type
           rdf:resource="http://purl.org/dc/dcmitype/StillImage" /><dc:title /></cc:Work></rdf:RDF></metadata><defs
     id="defs3089" /><sodipodi:namedview
     pagecolor="#ffffff"
     bordercolor="#666666"
     borderopacity="1"
     objecttolerance="10"
     gridtolerance="10"
     guidetolerance="10"
     inkscape:pageopacity="0"
     inkscape:pageshadow="2"
     inkscape:window-width="640"
     inkscape:window-height="480"
     id="namedview3087"
     showgrid="true"
     inkscape:zoom="8"
     inkscape:cx="312.69102"
     inkscape:cy="2556.0301"
     inkscape:current-layer="Layer_1"
     inkscape:snap-bbox="false"
     inkscape:snap-global="true"><inkscape:grid
       empspacing="5"
       visible="true"
       enabled="true"
       snapvisiblegridlinesonly="true"
       type="xygrid"
       id="grid3093" /></sodipodi:namedview><path
     style="fill:#2e6bb7;fill-opacity:1"
     inkscape:connector-curvature="0"
     id="path3069"
     d="m 337.45497,2427.1515 h -38.06778 l -1.35957,1.0876 v 33.853 h 10.46865 v -12.7798 l 0.95168,-0.9516 h 28.00702 c 7.06972,0 10.33269,-1.9034 10.33269,-6.7979 v -7.7496 c 0,-4.7584 -3.26297,-6.6617 -10.33269,-6.6617 m 0,12.5079 c 0,2.3112 -1.49552,2.7191 -4.89444,2.7191 h -22.97662 l -1.08764,-0.9516 v -7.2057 l 0.95168,-0.9517 h 23.11258 c 3.26296,0 4.89444,0.4078 4.89444,2.719 v 3.6709 z" /><polyline
     style="fill:#2e6bb7;fill-opacity:1"
     id="polyline3071"
     points="99.1,19.8 105.8,29.6 105.4,30.5 90.6,30.5 86.8,35.2 108.8,35.2 110.4,36.1 113.8,40.8    122.7,40.8 103.2,14.8  "
     transform="matrix(1.3595636,0,0,1.3595636,180.01749,2481.8861)" /><g
     id="g3109"
     transform="matrix(1.3595636,0,0,1.3595636,-68.37478,357.86427)"
     style="fill:#2e6bb7;fill-opacity:1"><polyline
       transform="translate(90,1673)"
       points="187.4,35.8 187.4,28.8 188.2,28.1 203.1,28.1 203.1,23.7 179.5,23.7 179.5,40.8 214.3,40.8    214.3,36.4 188.3,36.4  "
       id="polyline3073"
       style="fill:#2e6bb7;fill-opacity:1" /><rect
       x="269.5"
       y="1688.1"
       width="35.099998"
       height="4.8000002"
       id="rect3075"
       style="fill:#2e6bb7;fill-opacity:1" /></g><path
     style="fill:#2e6bb7;fill-opacity:1"
     inkscape:connector-curvature="0"
     id="path3077"
     d="m 309.85582,2583.7976 h 38.47566 c -0.54382,-4.8944 -3.67083,-6.254 -11.28439,-6.254 h -27.59914 c -8.7012,0 -11.42033,1.6315 -11.42033,8.2933 v 18.4901 c 0,6.5259 2.71913,8.2934 11.42033,8.2934 h 27.59914 c 7.74952,0 10.74057,-1.4955 11.01247,-6.526 h -38.20374 l -1.08765,-1.0876 v -20.3935" /><path
     style="fill:#2e6bb7;fill-opacity:1"
     inkscape:connector-curvature="0"
     id="path3079"
     d="m 337.86283,2365.483 h -27.87104 l -0.81576,-0.9518 v -5.982 l 0.81576,-0.6797 h 37.65989 l 0.54383,-1.2237 c -1.22361,-3.263 -4.6225,-4.8945 -10.74054,-4.8945 h -26.23958 c -8.70121,0 -11.42034,1.6315 -11.42034,8.2934 v 3.9426 c 0,6.5261 2.71913,8.2934 11.42034,8.2934 h 27.87105 l 0.81574,0.8158 v 6.254 l -0.67978,0.9517 h -31.94975 v 0 h -8.29333 c 0,0 -0.9517,0.5439 -0.9517,0.6798 0.67978,4.6225 3.80677,5.846 11.28437,5.846 h 28.55084 c 8.70121,0 11.55629,-1.6314 11.55629,-8.2932 v -4.7585 c 0,-6.5259 -2.85508,-8.2933 -11.55629,-8.2933" /><path
     style="fill:#2e6bb7;fill-opacity:1"
     inkscape:connector-curvature="0"
     id="path3081"
     d="m 315.8379,2728.0717 h -15.77094 l -0.81574,1.6315 17.40242,12.7799 c 3.26295,-1.9034 6.93377,-3.8068 10.74055,-5.7102" /><path
     style="fill:#2e6bb7;fill-opacity:1"
     inkscape:connector-curvature="0"
     id="path3083"
     d="m 329.97736,2752 15.36307,11.1484 h 15.77094 l 0.67978,-1.4955 -22.84067,-16.7226 c -2.99104,2.3112 -6.11804,4.6225 -8.97312,7.0697" /><path
     style="fill:#a7a9ac"
     inkscape:connector-curvature="0"
     id="path3085"
     d="m 313.52664,2763.1484 h -14.27542 l -1.22361,-1.9034 c 9.65291,-9.381 52.88703,-49.3521 146.83287,-53.5668 0,0 -78.71873,2.7191 -131.33384,55.4702" /><g
     id="g3264"
     transform="translate(-51.7301,0)"><path
       sodipodi:nodetypes="ssssscscccsscccccccscccssssccc"
       style="fill:#be0a0f"
       d="m 423.76832,539.19946 c -0.34315,0.63985 -1.26004,1.23172 -1.90807,1.23172 -0.70793,0 -1.59273,-0.48607 -1.96528,-1.07964 -0.57447,-0.91529 -0.39839,-2.13049 0.41692,-2.87768 1.85485,-1.69985 4.64838,0.50306 3.45643,2.7256 z m -2.89538,-5.57347 c -1.8552,0.38515 -3.21585,1.82701 -3.66482,3.88359 l -0.10474,0.47966 -2.17699,0 -2.17698,0 0,-0.57383 c 0,-0.87735 0.45927,-2.44896 1.0681,-3.65506 1.33466,-2.64392 4.63925,-4.81925 7.34787,-4.83691 l 0.65409,-0.004 0,2.25514 0,2.25516 -0.94658,0.1965 z m -7.29029,-3.59401 c -1.82755,1.84084 -2.91611,3.9941 -3.29013,6.50812 l -0.21559,1.44914 -2.96305,0 -2.96304,0 0.10578,-1.43901 c 0.15262,-2.07572 0.69715,-3.96023 1.77663,-6.14845 2.14966,-4.35762 5.56462,-7.39465 10.17642,-9.05022 1.36804,-0.4911 3.82791,-0.97918 4.935,-0.97918 l 0.67485,0 -0.0361,6.30399 c -1.29055,0 -4.51697,0 -8.20075,3.35561 z"
       id="path3928"
       inkscape:connector-curvature="0" /><path
       sodipodi:nodetypes="ssssscssssssssssssssssssccsssccssssssscsscssssssscccssssscssssscccccsssssscscsccsccccccssscscccccssssssssscccssssscscsscccsscscsccccccscsccccccccssssscsscsccccccccssscccccccsssscsscsccccc"
       style="fill:#050707"
       d="m 439.17686,672.1019 c -1.23381,5.4633 -4.56935,9.77956 -9.44023,12.21585 -2.37226,1.18655 -4.13603,1.61438 -7.06354,1.71339 -2.88177,0.0975 -4.39879,-0.1273 -6.85299,-1.01533 -4.10992,-1.48715 -7.70696,-4.74773 -9.69439,-8.78764 -1.35615,-2.75671 -1.65117,-4.13453 -1.6449,-7.68227 0.006,-3.57653 0.27184,-4.7655 1.71392,-7.67466 2.33741,-4.71538 6.37174,-8.0185 11.52582,-9.43681 1.39117,-0.38281 5.4795,-0.52472 7.18609,-0.2494 6.53161,1.05366 12.20114,6.244 14.01565,12.83105 0.49878,1.81062 0.64229,6.36905 0.25457,8.08582 z m -5.89058,-7.27727 c -0.65357,-1.84443 -1.43366,-3.06173 -2.91997,-4.55646 -2.31498,-2.32812 -4.55865,-3.32428 -7.78845,-3.45798 -2.40826,-0.0997 -4.04688,0.22827 -5.9539,1.19163 -2.56198,1.29423 -4.36827,3.13889 -5.54241,5.66021 -1.48488,3.18854 -1.45044,6.73501 0.0965,9.94218 2.86717,5.94431 10.16304,8.42175 16.13842,5.48008 2.96566,-1.45998 5.46174,-4.5467 6.26682,-7.74973 0.42161,-1.67734 0.27474,-4.8964 -0.29701,-6.50993 z m 5.88068,-94.41216 c -0.47869,2.20657 -1.52147,4.6609 -2.75036,6.47342 -0.77866,1.14847 -3.01278,3.41146 -4.22857,4.2832 -1.41094,1.01168 -4.02987,2.25467 -5.74626,2.72726 -1.20116,0.33073 -1.83243,0.38386 -4.53504,0.38162 -2.90711,-0.002 -3.25311,-0.0372 -4.67179,-0.47144 -5.36908,-1.64298 -9.36821,-5.14454 -11.4709,-10.04366 -1.13062,-2.63431 -1.301,-3.55816 -1.28975,-6.99359 0.009,-2.7988 0.0492,-3.18287 0.48209,-4.62227 0.54451,-1.81061 1.94162,-4.77098 2.32016,-4.91625 0.25885,-0.0993 4.58072,2.68938 4.59398,2.96429 0.004,0.0776 -0.30403,0.78403 -0.68394,1.56981 -0.99444,2.05681 -1.28471,3.4668 -1.17388,5.70211 0.13116,2.64581 0.97002,4.77473 2.70089,6.85453 4.42559,5.31774 12.69007,5.75646 17.56012,0.93214 2.29985,-2.27824 3.39987,-4.70538 3.5404,-7.81172 0.10463,-2.3129 -0.21922,-3.90516 -1.18552,-5.82863 -0.38085,-0.7581 -0.69245,-1.39369 -0.69245,-1.41246 0,-0.16814 4.44307,-3.03058 4.60664,-2.96781 0.58684,0.22519 2.21822,4.15092 2.64644,6.36835 0.31077,1.60923 0.29859,5.33216 -0.0222,6.8111 z m 0.15928,-29.45801 c -0.73621,3.90505 -2.38479,7.08995 -5.01312,9.68474 -2.31179,2.28231 -4.87131,3.75584 -7.94977,4.57674 -1.44469,0.38524 -2.02474,0.44421 -4.3694,0.44421 -2.34201,0 -2.92545,-0.0592 -4.36262,-0.44248 -3.11176,-0.82995 -5.59935,-2.23763 -7.90938,-4.47579 -1.70732,-1.65423 -2.66194,-2.9754 -3.67614,-5.08769 -0.69422,-1.44587 -0.95838,-2.24505 -1.39493,-4.22007 l -0.10601,-0.47966 2.86779,0 2.86779,0 0.20933,0.65409 c 0.41517,1.29738 1.59979,3.34001 2.5388,4.37765 5.60974,6.19895 15.63975,4.94022 19.52411,-2.45017 1.52637,-2.9041 1.73463,-6.61185 0.53782,-9.57485 -1.34071,-3.31928 -3.8913,-5.78217 -7.21562,-6.96755 l -1.09015,-0.38872 0,-2.85463 c 0,-2.7861 0.009,-2.85463 0.36727,-2.85463 0.83636,0 2.62702,0.59766 4.42939,1.47836 4.6394,2.26697 7.83989,6.12906 9.34647,11.27859 0.30047,1.02697 0.38624,1.84325 0.42816,4.07501 0.0288,1.53493 0.0154,2.98701 -0.0298,3.22685 z m -17.41951,105.00349 -17.18081,0 0.002,-7.45665 c 0.002,-6.70927 0.0364,-7.62198 0.34265,-9.10633 0.87969,-4.26351 3.75408,-7.77817 7.06114,-8.63397 2.17608,-0.56312 5.3113,-0.22316 7.41999,0.80459 1.48524,0.72387 3.2189,2.47172 3.91302,3.94505 0.35834,0.76061 0.6092,1.0862 0.83694,1.0862 0.17887,0 3.55916,-1.52655 7.51179,-3.39234 L 439,619.81215 l 0.0478,3.07423 c 0.0263,1.69083 -0.0142,3.13611 -0.0898,3.21176 -0.0756,0.0756 -3.23676,1.59849 -7.02473,3.38406 -3.78795,1.7856 -6.98532,3.3732 -7.10523,3.52799 -0.22864,0.29515 -0.32695,6.35613 -0.11211,6.91586 0.0942,0.24535 0.89539,0.27589 7.23862,0.27589 l 7.13273,0 0,2.87799 0,2.87802 -17.18079,0 z m -3.05502,-15.53749 c -0.37785,-1.99236 -1.46459,-3.41327 -3.00082,-3.92352 -1.73878,-0.57753 -3.30765,0.0355 -4.45475,1.74083 -1.01077,1.50262 -1.09994,2.12083 -1.04798,7.26592 l 0.0465,4.61103 4.17391,0.0468 c 3.22282,0.0363 4.20589,-0.004 4.31433,-0.17442 0.2042,-0.32171 0.17759,-8.46548 -0.0313,-9.56668 z m 3.05338,-16.03332 -17.20096,0 0.0679,-8.15435 c 0.058,-6.97072 0.11085,-8.31668 0.36429,-9.27272 1.23782,-4.66873 4.4689,-7.02428 9.27027,-6.75826 2.66221,0.14749 4.48154,0.86244 6.10727,2.40001 0.49687,0.4699 1.02251,0.85438 1.16808,0.85438 0.14556,0 0.48651,-0.32012 0.75765,-0.71139 1.7238,-2.48742 4.99945,-4.01176 8.04927,-3.74574 3.2791,0.28599 5.78483,2.08579 7.28861,5.23519 1.20344,2.52039 1.19403,2.43303 1.26472,11.73689 l 0.0639,8.41599 -17.20095,0 z m 11.11256,-16.76583 c -0.45126,-1.12856 -1.38483,-2.17062 -2.28755,-2.55339 -0.89792,-0.38072 -2.4212,-0.3306 -3.28084,0.10798 -1.00455,0.51248 -1.88974,1.62985 -2.35311,2.97035 -0.37618,1.08825 -0.39863,1.41345 -0.39863,5.77544 l 0,4.62223 4.18273,0.0468 c 2.30051,0.0257 4.28788,0.006 4.41637,-0.0428 0.18959,-0.0728 0.22226,-1.01872 0.17335,-5.01796 -0.0565,-4.62472 -0.0845,-4.9887 -0.45232,-5.9087 z m -14.39244,0.9804 c -0.39248,-0.87806 -1.22365,-1.75246 -2.12564,-2.23617 -0.54605,-0.29283 -1.00097,-0.3744 -2.09308,-0.37534 -1.75284,-9e-4 -2.55174,0.35411 -3.24253,1.44337 -0.75483,1.19022 -0.86766,2.13549 -0.81611,6.83695 l 0.0468,4.27339 4.1739,0.0468 c 3.21987,0.0362 4.20767,-0.004 4.32167,-0.17442 0.0813,-0.12171 0.12504,-2.22279 0.0973,-4.66909 -0.0435,-3.82308 -0.0943,-4.54582 -0.36235,-5.14551 z m 3.10709,-83.63648 -17.35522,0 0,-1.19644 0,-1.19643 9.94602,-7.6556 c 7.70276,-5.92896 9.93532,-7.73181 9.89858,-7.9934 -0.03,-0.21361 -3.15747,-2.73374 -8.50701,-6.855 -4.65278,-3.58448 -9.10713,-7.02404 -9.8986,-7.64346 l -1.43899,-1.12624 0,-1.13243 0,-1.13244 17.35522,0 17.35525,0 0,2.87657 0,2.87657 -9.9858,0.0451 c -8.60818,0.0389 -9.9858,0.0801 -9.9858,0.29916 0,0.13976 0.66717,0.76356 1.48261,1.3862 0.81543,0.62261 3.13091,2.43526 5.14552,4.02807 2.01459,1.5928 4.66366,3.66759 5.88682,4.6106 1.22315,0.94303 2.21958,1.7632 2.21429,1.82265 -0.004,0.0594 -0.53508,0.50486 -1.17735,0.98985 -6.53286,4.93306 -13.81353,10.62914 -13.81353,10.80715 0,0.12199 0.12415,0.26947 0.2759,0.32769 0.15175,0.0583 4.70423,0.1059 10.11662,0.1059 l 9.84072,0 0,2.878 0,2.87801 z m 0,-41.16417 -17.35522,0 0,-1.21203 0,-1.21205 9.93447,-7.64001 c 6.26631,-4.81901 9.93734,-7.75221 9.9422,-7.94389 0.009,-0.34577 0.22924,-0.16926 -11.32988,-9.07211 l -8.45958,-6.51561 -0.0513,-1.25507 -0.0513,-1.25508 17.36286,0 17.36288,0 0,2.96379 0,2.96378 -9.9858,0.0451 c -8.25924,0.0372 -9.98579,0.0859 -9.98579,0.28121 0,0.12988 1.23103,1.18952 2.73562,2.35471 1.5046,1.16523 4.8329,3.7651 7.39621,5.77755 l 4.66058,3.65896 -0.68086,0.56069 c -0.37448,0.30839 -3.76623,2.92585 -7.53722,5.81661 -3.77099,2.89073 -6.8256,5.34813 -6.78803,5.46089 0.0511,0.15317 2.61067,0.21636 10.1268,0.25001 l 10.05849,0.0451 0,2.96379 0,2.96381 -17.35523,0 z"
       id="path3924"
       inkscape:connector-curvature="0" /><path
       inkscape:connector-curvature="0"
       id="path3966"
       d="m 480.64631,589.06946 c -0.34314,0.63984 -1.26004,1.23171 -1.90806,1.23171 -0.70793,0 -1.59274,-0.48606 -1.96529,-1.07964 -0.57446,-0.91528 -0.39839,-2.13049 0.41694,-2.87768 1.85484,-1.69984 4.64838,0.50306 3.45641,2.72561 z m -2.89538,-5.57348 c -1.85519,0.38515 -3.21584,1.82701 -3.66481,3.8836 l -0.10475,0.47965 -2.17698,0 -2.17699,0 0,-0.57383 c 0,-0.87734 0.45928,-2.44896 1.06811,-3.65506 1.33465,-2.64391 4.63924,-4.81925 7.34787,-4.8369 l 0.6541,-0.004 0,2.25514 0,2.25516 -0.94659,0.19649 z m -7.29029,-3.594 c -1.82754,1.84084 -2.91609,3.99409 -3.29013,6.50812 l -0.21559,1.44913 -2.96305,0 -2.96303,0 0.10578,-1.439 c 0.15263,-2.07572 0.69715,-3.96024 1.77662,-6.14845 2.14967,-4.35763 5.56462,-7.39465 10.17642,-9.05023 1.36804,-0.4911 3.82791,-0.97918 4.93501,-0.97918 l 0.67486,0 -0.0362,6.30399 c -1.29057,0 -4.51698,0 -8.20077,3.35562 z"
       style="fill:#be0a0f"
       sodipodi:nodetypes="ssssscscccsscccccccscccssssccc" /><path
       inkscape:connector-curvature="0"
       id="path3968"
       d="m 495.96572,590.49322 c -0.73621,3.90506 -2.38479,7.08996 -5.01311,9.68476 -2.31179,2.28232 -4.87132,3.75585 -7.94979,4.57674 -1.44467,0.38524 -2.02473,0.44421 -4.3694,0.44421 -2.342,0 -2.92545,-0.0592 -4.3626,-0.44248 -3.11178,-0.82996 -5.59937,-2.23764 -7.90939,-4.4758 -1.70733,-1.65423 -2.66194,-2.97541 -3.67615,-5.08769 -0.69421,-1.44586 -0.95838,-2.24505 -1.39491,-4.22006 l -0.10602,-0.47968 2.86779,0 2.86779,0 0.20933,0.65411 c 0.41516,1.29738 1.59978,3.33999 2.5388,4.37764 5.60973,6.19896 15.63976,4.94023 19.52412,-2.45017 1.52635,-2.90409 1.73463,-6.61185 0.53781,-9.57486 -1.3407,-3.31925 -3.8913,-5.78216 -7.21562,-6.96753 l -1.09015,-0.38872 0,-2.85463 c 0,-2.7861 0.009,-2.85463 0.36726,-2.85463 0.83637,0 2.62704,0.59766 4.4294,1.47836 4.63939,2.26696 7.83989,6.12906 9.34648,11.27859 0.30045,1.02697 0.38622,1.84324 0.42815,4.075 0.0289,1.53494 0.0154,2.98702 -0.0298,3.22684 z"
       style="fill:#050707"
       sodipodi:nodetypes="cssssscccssssscsssssccc" /><path
       inkscape:connector-curvature="0"
       id="path3970"
       d="m 495.8108,550.97268 c -0.47869,2.20657 -1.52147,4.6609 -2.75036,6.47342 -0.77866,1.14847 -3.01278,3.41146 -4.22857,4.2832 -1.41094,1.01168 -4.02987,2.25467 -5.74626,2.72726 -1.20116,0.33073 -1.83243,0.38386 -4.53504,0.38162 -2.90711,-0.002 -3.25311,-0.0372 -4.67179,-0.47144 -5.36908,-1.64298 -9.36821,-5.14454 -11.4709,-10.04366 -1.13062,-2.63431 -1.301,-3.55816 -1.28975,-6.99359 0.009,-2.7988 0.0492,-3.18287 0.48209,-4.62227 0.54451,-1.81061 1.94162,-4.77098 2.32016,-4.91625 0.25885,-0.0993 4.58072,2.68938 4.59398,2.96429 0.004,0.0776 -0.30403,0.78403 -0.68394,1.56981 -0.99444,2.05681 -1.28471,3.4668 -1.17388,5.70211 0.13116,2.64581 0.97002,4.77473 2.70089,6.85453 4.42559,5.31774 12.69007,5.75646 17.56012,0.93214 2.29985,-2.27824 3.39987,-4.70538 3.5404,-7.81172 0.10463,-2.3129 -0.21922,-3.90516 -1.18552,-5.82863 -0.38085,-0.7581 -0.69245,-1.39369 -0.69245,-1.41246 0,-0.16814 4.44307,-3.03058 4.60664,-2.96781 0.58684,0.22519 2.21822,4.15092 2.64644,6.36835 0.31077,1.60923 0.29859,5.33216 -0.0222,6.8111 z"
       style="fill:#050707"
       sodipodi:nodetypes="csssccsssccssssssscssc" /><path
       sodipodi:nodetypes="cccc"
       inkscape:connector-curvature="0"
       id="path3972"
       d="m 493.27317,544.19773 -1.99802,-4.67546 -7.55145,-0.0252 -0.0884,6.36396"
       style="fill:none;stroke:#000000;stroke-width:5;stroke-linecap:butt;stroke-linejoin:miter;stroke-miterlimit:4;stroke-opacity:1;stroke-dasharray:none" /><text
       transform="matrix(0,-1,1,0,0,0)"
       sodipodi:linespacing="125%"
       id="text3974"
       y="506.34811"
       x="-535.91559"
       style="font-size:40px;font-style:normal;font-weight:normal;line-height:125%;letter-spacing:0px;word-spacing:0px;fill:#b72020;fill-opacity:1;stroke:none;font-family:Sans"
       xml:space="preserve"><tspan
         style="font-size:48px;font-style:normal;font-variant:normal;font-weight:normal;font-stretch:normal;fill:#b72020;fill-opacity:1;font-family:Poly;-inkscape-font-specification:Poly"
         y="506.34811"
         x="-535.91559"
         id="tspan3976"
         sodipodi:role="line">2</tspan></text>
</g><rect
     y="490.82663"
     x="70.615509"
     height="5.2972832"
     width="137.72937"
     id="rect3839"
     style="fill:#cb1b1b;fill-opacity:1;stroke:none" /><rect
     style="fill:#cb1b1b;fill-opacity:1;stroke:none"
     id="rect3845"
     width="137.72937"
     height="5.2972832"
     x="70.615509"
     y="501.42117" /><rect
     style="fill:#cb1b1b;fill-opacity:1;stroke:none"
     id="rect3847"
     width="137.72937"
     height="5.2972832"
     x="70.615509"
     y="512.01575" /><rect
     y="522.61029"
     x="70.615509"
     height="5.2972832"
     width="137.72937"
     id="rect3849"
     style="fill:#cb1b1b;fill-opacity:1;stroke:none" /><rect
     y="532.99188"
     x="70.615509"
     height="5.2972832"
     width="137.72937"
     id="rect3851"
     style="fill:#cb1b1b;fill-opacity:1;stroke:none" /><rect
     style="fill:#cb1b1b;fill-opacity:1;stroke:none"
     id="rect3853"
     width="137.72937"
     height="5.2972832"
     x="70.615509"
     y="543.58643" /><rect
     y="554.39404"
     x="70.615509"
     height="5.2972832"
     width="137.72937"
     id="rect3855"
     style="fill:#cb1b1b;fill-opacity:1;stroke:none" /><rect
     style="fill:#3263b4;fill-opacity:1;stroke:none"
     id="rect3857"
     width="50.324192"
     height="37.080982"
     x="70.615509"
     y="490.82663" /><path
     sodipodi:type="star"
     style="fill:#ffffff;fill-opacity:1;stroke:none"
     id="path3991"
     sodipodi:sides="5"
     sodipodi:cx="60"
     sodipodi:cy="452"
     sodipodi:r1="3"
     sodipodi:r2="1.4142137"
     sodipodi:arg1="-1.5707963"
     sodipodi:arg2="-0.9424778"
     inkscape:flatsided="false"
     inkscape:rounded="0"
     inkscape:randomized="0"
     d="m 60,449 0.831254,1.85588 2.021916,0.21707 -1.508173,1.36407 0.418359,1.99003 L 60,453.41421 l -1.763356,1.01284 0.418359,-1.99003 -1.508173,-1.36407 2.021916,-0.21707 z"
     transform="matrix(0.52972833,0,0,0.52972833,44.234064,255.62723)"
     inkscape:transform-center-y="-0.15175944" /><path
     inkscape:transform-center-y="-0.15175944"
     transform="matrix(0.52972833,0,0,0.52972833,52.269378,255.62723)"
     d="m 60,449 0.831254,1.85588 2.021916,0.21707 -1.508173,1.36407 0.418359,1.99003 L 60,453.41421 l -1.763356,1.01284 0.418359,-1.99003 -1.508173,-1.36407 2.021916,-0.21707 z"
     inkscape:randomized="0"
     inkscape:rounded="0"
     inkscape:flatsided="false"
     sodipodi:arg2="-0.9424778"
     sodipodi:arg1="-1.5707963"
     sodipodi:r2="1.4142137"
     sodipodi:r1="3"
     sodipodi:cy="452"
     sodipodi:cx="60"
     sodipodi:sides="5"
     id="path3993"
     style="fill:#ffffff;fill-opacity:1;stroke:none"
     sodipodi:type="star" /><path
     inkscape:transform-center-y="-0.15175944"
     transform="matrix(0.52972833,0,0,0.52972833,60.125914,255.62723)"
     d="m 60,449 0.831254,1.85588 2.021916,0.21707 -1.508173,1.36407 0.418359,1.99003 L 60,453.41421 l -1.763356,1.01284 0.418359,-1.99003 -1.508173,-1.36407 2.021916,-0.21707 z"
     inkscape:randomized="0"
     inkscape:rounded="0"
     inkscape:flatsided="false"
     sodipodi:arg2="-0.9424778"
     sodipodi:arg1="-1.5707963"
     sodipodi:r2="1.4142137"
     sodipodi:r1="3"
     sodipodi:cy="452"
     sodipodi:cx="60"
     sodipodi:sides="5"
     id="path3995"
     style="fill:#ffffff;fill-opacity:1;stroke:none"
     sodipodi:type="star" /><path
     sodipodi:type="star"
     style="fill:#ffffff;fill-opacity:1;stroke:none"
     id="path3997"
     sodipodi:sides="5"
     sodipodi:cx="60"
     sodipodi:cy="452"
     sodipodi:r1="3"
     sodipodi:r2="1.4142137"
     sodipodi:arg1="-1.5707963"
     sodipodi:arg2="-0.9424778"
     inkscape:flatsided="false"
     inkscape:rounded="0"
     inkscape:randomized="0"
     d="m 60,449 0.831254,1.85588 2.021916,0.21707 -1.508173,1.36407 0.418359,1.99003 L 60,453.41421 l -1.763356,1.01284 0.418359,-1.99003 -1.508173,-1.36407 2.021916,-0.21707 z"
     transform="matrix(0.52972833,0,0,0.52972833,68.161228,255.62723)"
     inkscape:transform-center-y="-0.15175944" /><path
     sodipodi:type="star"
     style="fill:#ffffff;fill-opacity:1;stroke:none"
     id="path3999"
     sodipodi:sides="5"
     sodipodi:cx="60"
     sodipodi:cy="452"
     sodipodi:r1="3"
     sodipodi:r2="1.4142137"
     sodipodi:arg1="-1.5707963"
     sodipodi:arg2="-0.9424778"
     inkscape:flatsided="false"
     inkscape:rounded="0"
     inkscape:randomized="0"
     d="m 60,449 0.831254,1.85588 2.021916,0.21707 -1.508173,1.36407 0.418359,1.99003 L 60,453.41421 l -1.763356,1.01284 0.418359,-1.99003 -1.508173,-1.36407 2.021916,-0.21707 z"
     transform="matrix(0.52972833,0,0,0.52972833,76.017763,255.62723)"
     inkscape:transform-center-y="-0.15175944" /><path
     inkscape:transform-center-y="-0.15175944"
     transform="matrix(0.52972833,0,0,0.52972833,84.053078,255.62723)"
     d="m 60,449 0.831254,1.85588 2.021916,0.21707 -1.508173,1.36407 0.418359,1.99003 L 60,453.41421 l -1.763356,1.01284 0.418359,-1.99003 -1.508173,-1.36407 2.021916,-0.21707 z"
     inkscape:randomized="0"
     inkscape:rounded="0"
     inkscape:flatsided="false"
     sodipodi:arg2="-0.9424778"
     sodipodi:arg1="-1.5707963"
     sodipodi:r2="1.4142137"
     sodipodi:r1="3"
     sodipodi:cy="452"
     sodipodi:cx="60"
     sodipodi:sides="5"
     id="path4001"
     style="fill:#ffffff;fill-opacity:1;stroke:none"
     sodipodi:type="star" /><path
     inkscape:transform-center-y="-0.15175269"
     transform="matrix(0.52972833,0,0,0.52972833,44.234064,262.60213)"
     d="m 60,449 0.831254,1.85588 2.021916,0.21707 -1.508173,1.36407 0.418359,1.99003 L 60,453.41421 l -1.763356,1.01284 0.418359,-1.99003 -1.508173,-1.36407 2.021916,-0.21707 z"
     inkscape:randomized="0"
     inkscape:rounded="0"
     inkscape:flatsided="false"
     sodipodi:arg2="-0.9424778"
     sodipodi:arg1="-1.5707963"
     sodipodi:r2="1.4142137"
     sodipodi:r1="3"
     sodipodi:cy="452"
     sodipodi:cx="60"
     sodipodi:sides="5"
     id="path4003"
     style="fill:#ffffff;fill-opacity:1;stroke:none"
     sodipodi:type="star" /><path
     sodipodi:type="star"
     style="fill:#ffffff;fill-opacity:1;stroke:none"
     id="path4005"
     sodipodi:sides="5"
     sodipodi:cx="60"
     sodipodi:cy="452"
     sodipodi:r1="3"
     sodipodi:r2="1.4142137"
     sodipodi:arg1="-1.5707963"
     sodipodi:arg2="-0.9424778"
     inkscape:flatsided="false"
     inkscape:rounded="0"
     inkscape:randomized="0"
     d="m 60,449 0.831254,1.85588 2.021916,0.21707 -1.508173,1.36407 0.418359,1.99003 L 60,453.41421 l -1.763356,1.01284 0.418359,-1.99003 -1.508173,-1.36407 2.021916,-0.21707 z"
     transform="matrix(0.52972833,0,0,0.52972833,52.269378,262.60213)"
     inkscape:transform-center-y="-0.15175269" /><path
     sodipodi:type="star"
     style="fill:#ffffff;fill-opacity:1;stroke:none"
     id="path4007"
     sodipodi:sides="5"
     sodipodi:cx="60"
     sodipodi:cy="452"
     sodipodi:r1="3"
     sodipodi:r2="1.4142137"
     sodipodi:arg1="-1.5707963"
     sodipodi:arg2="-0.9424778"
     inkscape:flatsided="false"
     inkscape:rounded="0"
     inkscape:randomized="0"
     d="m 60,449 0.831254,1.85588 2.021916,0.21707 -1.508173,1.36407 0.418359,1.99003 L 60,453.41421 l -1.763356,1.01284 0.418359,-1.99003 -1.508173,-1.36407 2.021916,-0.21707 z"
     transform="matrix(0.52972833,0,0,0.52972833,60.125914,262.60213)"
     inkscape:transform-center-y="-0.15175269" /><path
     inkscape:transform-center-y="-0.15175269"
     transform="matrix(0.52972833,0,0,0.52972833,68.161228,262.60213)"
     d="m 60,449 0.831254,1.85588 2.021916,0.21707 -1.508173,1.36407 0.418359,1.99003 L 60,453.41421 l -1.763356,1.01284 0.418359,-1.99003 -1.508173,-1.36407 2.021916,-0.21707 z"
     inkscape:randomized="0"
     inkscape:rounded="0"
     inkscape:flatsided="false"
     sodipodi:arg2="-0.9424778"
     sodipodi:arg1="-1.5707963"
     sodipodi:r2="1.4142137"
     sodipodi:r1="3"
     sodipodi:cy="452"
     sodipodi:cx="60"
     sodipodi:sides="5"
     id="path4009"
     style="fill:#ffffff;fill-opacity:1;stroke:none"
     sodipodi:type="star" /><path
     inkscape:transform-center-y="-0.15175269"
     transform="matrix(0.52972833,0,0,0.52972833,76.017763,262.60213)"
     d="m 60,449 0.831254,1.85588 2.021916,0.21707 -1.508173,1.36407 0.418359,1.99003 L 60,453.41421 l -1.763356,1.01284 0.418359,-1.99003 -1.508173,-1.36407 2.021916,-0.21707 z"
     inkscape:randomized="0"
     inkscape:rounded="0"
     inkscape:flatsided="false"
     sodipodi:arg2="-0.9424778"
     sodipodi:arg1="-1.5707963"
     sodipodi:r2="1.4142137"
     sodipodi:r1="3"
     sodipodi:cy="452"
     sodipodi:cx="60"
     sodipodi:sides="5"
     id="path4011"
     style="fill:#ffffff;fill-opacity:1;stroke:none"
     sodipodi:type="star" /><path
     sodipodi:type="star"
     style="fill:#ffffff;fill-opacity:1;stroke:none"
     id="path4013"
     sodipodi:sides="5"
     sodipodi:cx="60"
     sodipodi:cy="452"
     sodipodi:r1="3"
     sodipodi:r2="1.4142137"
     sodipodi:arg1="-1.5707963"
     sodipodi:arg2="-0.9424778"
     inkscape:flatsided="false"
     inkscape:rounded="0"
     inkscape:randomized="0"
     d="m 60,449 0.831254,1.85588 2.021916,0.21707 -1.508173,1.36407 0.418359,1.99003 L 60,453.41421 l -1.763356,1.01284 0.418359,-1.99003 -1.508173,-1.36407 2.021916,-0.21707 z"
     transform="matrix(0.52972833,0,0,0.52972833,84.053078,262.60213)"
     inkscape:transform-center-y="-0.15175269" /><path
     sodipodi:type="star"
     style="fill:#ffffff;fill-opacity:1;stroke:none"
     id="path4015"
     sodipodi:sides="5"
     sodipodi:cx="60"
     sodipodi:cy="452"
     sodipodi:r1="3"
     sodipodi:r2="1.4142137"
     sodipodi:arg1="-1.5707963"
     sodipodi:arg2="-0.9424778"
     inkscape:flatsided="false"
     inkscape:rounded="0"
     inkscape:randomized="0"
     d="m 60,449 0.831254,1.85588 2.021916,0.21707 -1.508173,1.36407 0.418359,1.99003 L 60,453.41421 l -1.763356,1.01284 0.418359,-1.99003 -1.508173,-1.36407 2.021916,-0.21707 z"
     transform="matrix(0.52972833,0,0,0.52972833,44.234064,270.24021)"
     inkscape:transform-center-y="-0.15175185" /><path
     inkscape:transform-center-y="-0.15175185"
     transform="matrix(0.52972833,0,0,0.52972833,52.269378,270.24021)"
     d="m 60,449 0.831254,1.85588 2.021916,0.21707 -1.508173,1.36407 0.418359,1.99003 L 60,453.41421 l -1.763356,1.01284 0.418359,-1.99003 -1.508173,-1.36407 2.021916,-0.21707 z"
     inkscape:randomized="0"
     inkscape:rounded="0"
     inkscape:flatsided="false"
     sodipodi:arg2="-0.9424778"
     sodipodi:arg1="-1.5707963"
     sodipodi:r2="1.4142137"
     sodipodi:r1="3"
     sodipodi:cy="452"
     sodipodi:cx="60"
     sodipodi:sides="5"
     id="path4017"
     style="fill:#ffffff;fill-opacity:1;stroke:none"
     sodipodi:type="star" /><path
     inkscape:transform-center-y="-0.15175185"
     transform="matrix(0.52972833,0,0,0.52972833,60.125914,270.24021)"
     d="m 60,449 0.831254,1.85588 2.021916,0.21707 -1.508173,1.36407 0.418359,1.99003 L 60,453.41421 l -1.763356,1.01284 0.418359,-1.99003 -1.508173,-1.36407 2.021916,-0.21707 z"
     inkscape:randomized="0"
     inkscape:rounded="0"
     inkscape:flatsided="false"
     sodipodi:arg2="-0.9424778"
     sodipodi:arg1="-1.5707963"
     sodipodi:r2="1.4142137"
     sodipodi:r1="3"
     sodipodi:cy="452"
     sodipodi:cx="60"
     sodipodi:sides="5"
     id="path4019"
     style="fill:#ffffff;fill-opacity:1;stroke:none"
     sodipodi:type="star" /><path
     sodipodi:type="star"
     style="fill:#ffffff;fill-opacity:1;stroke:none"
     id="path4021"
     sodipodi:sides="5"
     sodipodi:cx="60"
     sodipodi:cy="452"
     sodipodi:r1="3"
     sodipodi:r2="1.4142137"
     sodipodi:arg1="-1.5707963"
     sodipodi:arg2="-0.9424778"
     inkscape:flatsided="false"
     inkscape:rounded="0"
     inkscape:randomized="0"
     d="m 60,449 0.831254,1.85588 2.021916,0.21707 -1.508173,1.36407 0.418359,1.99003 L 60,453.41421 l -1.763356,1.01284 0.418359,-1.99003 -1.508173,-1.36407 2.021916,-0.21707 z"
     transform="matrix(0.52972833,0,0,0.52972833,68.161228,270.24021)"
     inkscape:transform-center-y="-0.15175185" /><path
     sodipodi:type="star"
     style="fill:#ffffff;fill-opacity:1;stroke:none"
     id="path4023"
     sodipodi:sides="5"
     sodipodi:cx="60"
     sodipodi:cy="452"
     sodipodi:r1="3"
     sodipodi:r2="1.4142137"
     sodipodi:arg1="-1.5707963"
     sodipodi:arg2="-0.9424778"
     inkscape:flatsided="false"
     inkscape:rounded="0"
     inkscape:randomized="0"
     d="m 60,449 0.831254,1.85588 2.021916,0.21707 -1.508173,1.36407 0.418359,1.99003 L 60,453.41421 l -1.763356,1.01284 0.418359,-1.99003 -1.508173,-1.36407 2.021916,-0.21707 z"
     transform="matrix(0.52972833,0,0,0.52972833,76.017763,270.24021)"
     inkscape:transform-center-y="-0.15175185" /><path
     inkscape:transform-center-y="-0.15175185"
     transform="matrix(0.52972833,0,0,0.52972833,84.053078,270.24021)"
     d="m 60,449 0.831254,1.85588 2.021916,0.21707 -1.508173,1.36407 0.418359,1.99003 L 60,453.41421 l -1.763356,1.01284 0.418359,-1.99003 -1.508173,-1.36407 2.021916,-0.21707 z"
     inkscape:randomized="0"
     inkscape:rounded="0"
     inkscape:flatsided="false"
     sodipodi:arg2="-0.9424778"
     sodipodi:arg1="-1.5707963"
     sodipodi:r2="1.4142137"
     sodipodi:r1="3"
     sodipodi:cy="452"
     sodipodi:cx="60"
     sodipodi:sides="5"
     id="path4025"
     style="fill:#ffffff;fill-opacity:1;stroke:none"
     sodipodi:type="star" /><path
     inkscape:transform-center-y="-0.1517496"
     transform="matrix(0.52972833,0,0,0.52972833,44.234064,277.64433)"
     d="m 60,449 0.831254,1.85588 2.021916,0.21707 -1.508173,1.36407 0.418359,1.99003 L 60,453.41421 l -1.763356,1.01284 0.418359,-1.99003 -1.508173,-1.36407 2.021916,-0.21707 z"
     inkscape:randomized="0"
     inkscape:rounded="0"
     inkscape:flatsided="false"
     sodipodi:arg2="-0.9424778"
     sodipodi:arg1="-1.5707963"
     sodipodi:r2="1.4142137"
     sodipodi:r1="3"
     sodipodi:cy="452"
     sodipodi:cx="60"
     sodipodi:sides="5"
     id="path4027"
     style="fill:#ffffff;fill-opacity:1;stroke:none"
     sodipodi:type="star" /><path
     sodipodi:type="star"
     style="fill:#ffffff;fill-opacity:1;stroke:none"
     id="path4029"
     sodipodi:sides="5"
     sodipodi:cx="60"
     sodipodi:cy="452"
     sodipodi:r1="3"
     sodipodi:r2="1.4142137"
     sodipodi:arg1="-1.5707963"
     sodipodi:arg2="-0.9424778"
     inkscape:flatsided="false"
     inkscape:rounded="0"
     inkscape:randomized="0"
     d="m 60,449 0.831254,1.85588 2.021916,0.21707 -1.508173,1.36407 0.418359,1.99003 L 60,453.41421 l -1.763356,1.01284 0.418359,-1.99003 -1.508173,-1.36407 2.021916,-0.21707 z"
     transform="matrix(0.52972833,0,0,0.52972833,52.269378,277.64433)"
     inkscape:transform-center-y="-0.1517496" /><path
     sodipodi:type="star"
     style="fill:#ffffff;fill-opacity:1;stroke:none"
     id="path4031"
     sodipodi:sides="5"
     sodipodi:cx="60"
     sodipodi:cy="452"
     sodipodi:r1="3"
     sodipodi:r2="1.4142137"
     sodipodi:arg1="-1.5707963"
     sodipodi:arg2="-0.9424778"
     inkscape:flatsided="false"
     inkscape:rounded="0"
     inkscape:randomized="0"
     d="m 60,449 0.831254,1.85588 2.021916,0.21707 -1.508173,1.36407 0.418359,1.99003 L 60,453.41421 l -1.763356,1.01284 0.418359,-1.99003 -1.508173,-1.36407 2.021916,-0.21707 z"
     transform="matrix(0.52972833,0,0,0.52972833,60.125914,277.64433)"
     inkscape:transform-center-y="-0.1517496" /><path
     inkscape:transform-center-y="-0.1517496"
     transform="matrix(0.52972833,0,0,0.52972833,68.161228,277.64433)"
     d="m 60,449 0.831254,1.85588 2.021916,0.21707 -1.508173,1.36407 0.418359,1.99003 L 60,453.41421 l -1.763356,1.01284 0.418359,-1.99003 -1.508173,-1.36407 2.021916,-0.21707 z"
     inkscape:randomized="0"
     inkscape:rounded="0"
     inkscape:flatsided="false"
     sodipodi:arg2="-0.9424778"
     sodipodi:arg1="-1.5707963"
     sodipodi:r2="1.4142137"
     sodipodi:r1="3"
     sodipodi:cy="452"
     sodipodi:cx="60"
     sodipodi:sides="5"
     id="path4033"
     style="fill:#ffffff;fill-opacity:1;stroke:none"
     sodipodi:type="star" /><path
     inkscape:transform-center-y="-0.1517496"
     transform="matrix(0.52972833,0,0,0.52972833,76.017763,277.64433)"
     d="m 60,449 0.831254,1.85588 2.021916,0.21707 -1.508173,1.36407 0.418359,1.99003 L 60,453.41421 l -1.763356,1.01284 0.418359,-1.99003 -1.508173,-1.36407 2.021916,-0.21707 z"
     inkscape:randomized="0"
     inkscape:rounded="0"
     inkscape:flatsided="false"
     sodipodi:arg2="-0.9424778"
     sodipodi:arg1="-1.5707963"
     sodipodi:r2="1.4142137"
     sodipodi:r1="3"
     sodipodi:cy="452"
     sodipodi:cx="60"
     sodipodi:sides="5"
     id="path4035"
     style="fill:#ffffff;fill-opacity:1;stroke:none"
     sodipodi:type="star" /><path
     sodipodi:type="star"
     style="fill:#ffffff;fill-opacity:1;stroke:none"
     id="path4037"
     sodipodi:sides="5"
     sodipodi:cx="60"
     sodipodi:cy="452"
     sodipodi:r1="3"
     sodipodi:r2="1.4142137"
     sodipodi:arg1="-1.5707963"
     sodipodi:arg2="-0.9424778"
     inkscape:flatsided="false"
     inkscape:rounded="0"
     inkscape:randomized="0"
     d="m 60,449 0.831254,1.85588 2.021916,0.21707 -1.508173,1.36407 0.418359,1.99003 L 60,453.41421 l -1.763356,1.01284 0.418359,-1.99003 -1.508173,-1.36407 2.021916,-0.21707 z"
     transform="matrix(0.52972833,0,0,0.52972833,84.053078,277.64433)"
     inkscape:transform-center-y="-0.1517496" /><path
     sodipodi:type="star"
     style="fill:#ffffff;fill-opacity:1;stroke:none"
     id="path4039"
     sodipodi:sides="5"
     sodipodi:cx="60"
     sodipodi:cy="452"
     sodipodi:r1="3"
     sodipodi:r2="1.4142137"
     sodipodi:arg1="-1.5707963"
     sodipodi:arg2="-0.9424778"
     inkscape:flatsided="false"
     inkscape:rounded="0"
     inkscape:randomized="0"
     d="m 60,449 0.831254,1.85588 2.021916,0.21707 -1.508173,1.36407 0.418359,1.99003 L 60,453.41421 l -1.763356,1.01284 0.418359,-1.99003 -1.508173,-1.36407 2.021916,-0.21707 z"
     transform="matrix(0.52972833,0,0,0.52972833,44.234064,285.06052)"
     inkscape:transform-center-y="-0.15175622" /><path
     inkscape:transform-center-y="-0.15175622"
     transform="matrix(0.52972833,0,0,0.52972833,52.269378,285.06052)"
     d="m 60,449 0.831254,1.85588 2.021916,0.21707 -1.508173,1.36407 0.418359,1.99003 L 60,453.41421 l -1.763356,1.01284 0.418359,-1.99003 -1.508173,-1.36407 2.021916,-0.21707 z"
     inkscape:randomized="0"
     inkscape:rounded="0"
     inkscape:flatsided="false"
     sodipodi:arg2="-0.9424778"
     sodipodi:arg1="-1.5707963"
     sodipodi:r2="1.4142137"
     sodipodi:r1="3"
     sodipodi:cy="452"
     sodipodi:cx="60"
     sodipodi:sides="5"
     id="path4041"
     style="fill:#ffffff;fill-opacity:1;stroke:none"
     sodipodi:type="star" /><path
     inkscape:transform-center-y="-0.15175622"
     transform="matrix(0.52972833,0,0,0.52972833,60.125914,285.06052)"
     d="m 60,449 0.831254,1.85588 2.021916,0.21707 -1.508173,1.36407 0.418359,1.99003 L 60,453.41421 l -1.763356,1.01284 0.418359,-1.99003 -1.508173,-1.36407 2.021916,-0.21707 z"
     inkscape:randomized="0"
     inkscape:rounded="0"
     inkscape:flatsided="false"
     sodipodi:arg2="-0.9424778"
     sodipodi:arg1="-1.5707963"
     sodipodi:r2="1.4142137"
     sodipodi:r1="3"
     sodipodi:cy="452"
     sodipodi:cx="60"
     sodipodi:sides="5"
     id="path4043"
     style="fill:#ffffff;fill-opacity:1;stroke:none"
     sodipodi:type="star" /><path
     sodipodi:type="star"
     style="fill:#ffffff;fill-opacity:1;stroke:none"
     id="path4045"
     sodipodi:sides="5"
     sodipodi:cx="60"
     sodipodi:cy="452"
     sodipodi:r1="3"
     sodipodi:r2="1.4142137"
     sodipodi:arg1="-1.5707963"
     sodipodi:arg2="-0.9424778"
     inkscape:flatsided="false"
     inkscape:rounded="0"
     inkscape:randomized="0"
     d="m 60,449 0.831254,1.85588 2.021916,0.21707 -1.508173,1.36407 0.418359,1.99003 L 60,453.41421 l -1.763356,1.01284 0.418359,-1.99003 -1.508173,-1.36407 2.021916,-0.21707 z"
     transform="matrix(0.52972833,0,0,0.52972833,68.161228,285.06052)"
     inkscape:transform-center-y="-0.15175622" /><path
     sodipodi:type="star"
     style="fill:#ffffff;fill-opacity:1;stroke:none"
     id="path4047"
     sodipodi:sides="5"
     sodipodi:cx="60"
     sodipodi:cy="452"
     sodipodi:r1="3"
     sodipodi:r2="1.4142137"
     sodipodi:arg1="-1.5707963"
     sodipodi:arg2="-0.9424778"
     inkscape:flatsided="false"
     inkscape:rounded="0"
     inkscape:randomized="0"
     d="m 60,449 0.831254,1.85588 2.021916,0.21707 -1.508173,1.36407 0.418359,1.99003 L 60,453.41421 l -1.763356,1.01284 0.418359,-1.99003 -1.508173,-1.36407 2.021916,-0.21707 z"
     transform="matrix(0.52972833,0,0,0.52972833,76.017763,285.06052)"
     inkscape:transform-center-y="-0.15175622" /><path
     inkscape:transform-center-y="-0.15175622"
     transform="matrix(0.52972833,0,0,0.52972833,84.053078,285.06052)"
     d="m 60,449 0.831254,1.85588 2.021916,0.21707 -1.508173,1.36407 0.418359,1.99003 L 60,453.41421 l -1.763356,1.01284 0.418359,-1.99003 -1.508173,-1.36407 2.021916,-0.21707 z"
     inkscape:randomized="0"
     inkscape:rounded="0"
     inkscape:flatsided="false"
     sodipodi:arg2="-0.9424778"
     sodipodi:arg1="-1.5707963"
     sodipodi:r2="1.4142137"
     sodipodi:r1="3"
     sodipodi:cy="452"
     sodipodi:cx="60"
     sodipodi:sides="5"
     id="path4049"
     style="fill:#ffffff;fill-opacity:1;stroke:none"
     sodipodi:type="star" /><path
     inkscape:transform-center-y="-0.15175805"
     transform="matrix(0.52972833,0,0,0.52972833,48.289136,259.10383)"
     d="m 60,449 0.831254,1.85588 2.021916,0.21707 -1.508173,1.36407 0.418359,1.99003 L 60,453.41421 l -1.763356,1.01284 0.418359,-1.99003 -1.508173,-1.36407 2.021916,-0.21707 z"
     inkscape:randomized="0"
     inkscape:rounded="0"
     inkscape:flatsided="false"
     sodipodi:arg2="-0.9424778"
     sodipodi:arg1="-1.5707963"
     sodipodi:r2="1.4142137"
     sodipodi:r1="3"
     sodipodi:cy="452"
     sodipodi:cx="60"
     sodipodi:sides="5"
     id="path4051"
     style="fill:#ffffff;fill-opacity:1;stroke:none"
     sodipodi:type="star" /><path
     sodipodi:type="star"
     style="fill:#ffffff;fill-opacity:1;stroke:none"
     id="path4053"
     sodipodi:sides="5"
     sodipodi:cx="60"
     sodipodi:cy="452"
     sodipodi:r1="3"
     sodipodi:r2="1.4142137"
     sodipodi:arg1="-1.5707963"
     sodipodi:arg2="-0.9424778"
     inkscape:flatsided="false"
     inkscape:rounded="0"
     inkscape:randomized="0"
     d="m 60,449 0.831254,1.85588 2.021916,0.21707 -1.508173,1.36407 0.418359,1.99003 L 60,453.41421 l -1.763356,1.01284 0.418359,-1.99003 -1.508173,-1.36407 2.021916,-0.21707 z"
     transform="matrix(0.52972833,0,0,0.52972833,56.32445,259.10383)"
     inkscape:transform-center-y="-0.15175805" /><path
     sodipodi:type="star"
     style="fill:#ffffff;fill-opacity:1;stroke:none"
     id="path4055"
     sodipodi:sides="5"
     sodipodi:cx="60"
     sodipodi:cy="452"
     sodipodi:r1="3"
     sodipodi:r2="1.4142137"
     sodipodi:arg1="-1.5707963"
     sodipodi:arg2="-0.9424778"
     inkscape:flatsided="false"
     inkscape:rounded="0"
     inkscape:randomized="0"
     d="m 60,449 0.831254,1.85588 2.021916,0.21707 -1.508173,1.36407 0.418359,1.99003 L 60,453.41421 l -1.763356,1.01284 0.418359,-1.99003 -1.508173,-1.36407 2.021916,-0.21707 z"
     transform="matrix(0.52972833,0,0,0.52972833,64.180986,259.10383)"
     inkscape:transform-center-y="-0.15175805" /><path
     inkscape:transform-center-y="-0.15175805"
     transform="matrix(0.52972833,0,0,0.52972833,72.2163,259.10383)"
     d="m 60,449 0.831254,1.85588 2.021916,0.21707 -1.508173,1.36407 0.418359,1.99003 L 60,453.41421 l -1.763356,1.01284 0.418359,-1.99003 -1.508173,-1.36407 2.021916,-0.21707 z"
     inkscape:randomized="0"
     inkscape:rounded="0"
     inkscape:flatsided="false"
     sodipodi:arg2="-0.9424778"
     sodipodi:arg1="-1.5707963"
     sodipodi:r2="1.4142137"
     sodipodi:r1="3"
     sodipodi:cy="452"
     sodipodi:cx="60"
     sodipodi:sides="5"
     id="path4057"
     style="fill:#ffffff;fill-opacity:1;stroke:none"
     sodipodi:type="star" /><path
     inkscape:transform-center-y="-0.15175805"
     transform="matrix(0.52972833,0,0,0.52972833,80.072835,259.10383)"
     d="m 60,449 0.831254,1.85588 2.021916,0.21707 -1.508173,1.36407 0.418359,1.99003 L 60,453.41421 l -1.763356,1.01284 0.418359,-1.99003 -1.508173,-1.36407 2.021916,-0.21707 z"
     inkscape:randomized="0"
     inkscape:rounded="0"
     inkscape:flatsided="false"
     sodipodi:arg2="-0.9424778"
     sodipodi:arg1="-1.5707963"
     sodipodi:r2="1.4142137"
     sodipodi:r1="3"
     sodipodi:cy="452"
     sodipodi:cx="60"
     sodipodi:sides="5"
     id="path4059"
     style="fill:#ffffff;fill-opacity:1;stroke:none"
     sodipodi:type="star" /><path
     sodipodi:type="star"
     style="fill:#ffffff;fill-opacity:1;stroke:none"
     id="path4061"
     sodipodi:sides="5"
     sodipodi:cx="60"
     sodipodi:cy="452"
     sodipodi:r1="3"
     sodipodi:r2="1.4142137"
     sodipodi:arg1="-1.5707963"
     sodipodi:arg2="-0.9424778"
     inkscape:flatsided="false"
     inkscape:rounded="0"
     inkscape:randomized="0"
     d="m 60,449 0.831254,1.85588 2.021916,0.21707 -1.508173,1.36407 0.418359,1.99003 L 60,453.41421 l -1.763356,1.01284 0.418359,-1.99003 -1.508173,-1.36407 2.021916,-0.21707 z"
     transform="matrix(0.52972833,0,0,0.52972833,48.289136,266.52003)"
     inkscape:transform-center-y="-0.15175467" /><path
     inkscape:transform-center-y="-0.15175467"
     transform="matrix(0.52972833,0,0,0.52972833,56.32445,266.52003)"
     d="m 60,449 0.831254,1.85588 2.021916,0.21707 -1.508173,1.36407 0.418359,1.99003 L 60,453.41421 l -1.763356,1.01284 0.418359,-1.99003 -1.508173,-1.36407 2.021916,-0.21707 z"
     inkscape:randomized="0"
     inkscape:rounded="0"
     inkscape:flatsided="false"
     sodipodi:arg2="-0.9424778"
     sodipodi:arg1="-1.5707963"
     sodipodi:r2="1.4142137"
     sodipodi:r1="3"
     sodipodi:cy="452"
     sodipodi:cx="60"
     sodipodi:sides="5"
     id="path4063"
     style="fill:#ffffff;fill-opacity:1;stroke:none"
     sodipodi:type="star" /><path
     inkscape:transform-center-y="-0.15175467"
     transform="matrix(0.52972833,0,0,0.52972833,64.180986,266.52003)"
     d="m 60,449 0.831254,1.85588 2.021916,0.21707 -1.508173,1.36407 0.418359,1.99003 L 60,453.41421 l -1.763356,1.01284 0.418359,-1.99003 -1.508173,-1.36407 2.021916,-0.21707 z"
     inkscape:randomized="0"
     inkscape:rounded="0"
     inkscape:flatsided="false"
     sodipodi:arg2="-0.9424778"
     sodipodi:arg1="-1.5707963"
     sodipodi:r2="1.4142137"
     sodipodi:r1="3"
     sodipodi:cy="452"
     sodipodi:cx="60"
     sodipodi:sides="5"
     id="path4065"
     style="fill:#ffffff;fill-opacity:1;stroke:none"
     sodipodi:type="star" /><path
     sodipodi:type="star"
     style="fill:#ffffff;fill-opacity:1;stroke:none"
     id="path4067"
     sodipodi:sides="5"
     sodipodi:cx="60"
     sodipodi:cy="452"
     sodipodi:r1="3"
     sodipodi:r2="1.4142137"
     sodipodi:arg1="-1.5707963"
     sodipodi:arg2="-0.9424778"
     inkscape:flatsided="false"
     inkscape:rounded="0"
     inkscape:randomized="0"
     d="m 60,449 0.831254,1.85588 2.021916,0.21707 -1.508173,1.36407 0.418359,1.99003 L 60,453.41421 l -1.763356,1.01284 0.418359,-1.99003 -1.508173,-1.36407 2.021916,-0.21707 z"
     transform="matrix(0.52972833,0,0,0.52972833,72.2163,266.52003)"
     inkscape:transform-center-y="-0.15175467" /><path
     sodipodi:type="star"
     style="fill:#ffffff;fill-opacity:1;stroke:none"
     id="path4069"
     sodipodi:sides="5"
     sodipodi:cx="60"
     sodipodi:cy="452"
     sodipodi:r1="3"
     sodipodi:r2="1.4142137"
     sodipodi:arg1="-1.5707963"
     sodipodi:arg2="-0.9424778"
     inkscape:flatsided="false"
     inkscape:rounded="0"
     inkscape:randomized="0"
     d="m 60,449 0.831254,1.85588 2.021916,0.21707 -1.508173,1.36407 0.418359,1.99003 L 60,453.41421 l -1.763356,1.01284 0.418359,-1.99003 -1.508173,-1.36407 2.021916,-0.21707 z"
     transform="matrix(0.52972833,0,0,0.52972833,80.072835,266.52003)"
     inkscape:transform-center-y="-0.15175467" /><path
     inkscape:transform-center-y="-0.15176017"
     transform="matrix(0.52972833,0,0,0.52972833,48.289136,274.15198)"
     d="m 60,449 0.831254,1.85588 2.021916,0.21707 -1.508173,1.36407 0.418359,1.99003 L 60,453.41421 l -1.763356,1.01284 0.418359,-1.99003 -1.508173,-1.36407 2.021916,-0.21707 z"
     inkscape:randomized="0"
     inkscape:rounded="0"
     inkscape:flatsided="false"
     sodipodi:arg2="-0.9424778"
     sodipodi:arg1="-1.5707963"
     sodipodi:r2="1.4142137"
     sodipodi:r1="3"
     sodipodi:cy="452"
     sodipodi:cx="60"
     sodipodi:sides="5"
     id="path4071"
     style="fill:#ffffff;fill-opacity:1;stroke:none"
     sodipodi:type="star" /><path
     sodipodi:type="star"
     style="fill:#ffffff;fill-opacity:1;stroke:none"
     id="path4073"
     sodipodi:sides="5"
     sodipodi:cx="60"
     sodipodi:cy="452"
     sodipodi:r1="3"
     sodipodi:r2="1.4142137"
     sodipodi:arg1="-1.5707963"
     sodipodi:arg2="-0.9424778"
     inkscape:flatsided="false"
     inkscape:rounded="0"
     inkscape:randomized="0"
     d="m 60,449 0.831254,1.85588 2.021916,0.21707 -1.508173,1.36407 0.418359,1.99003 L 60,453.41421 l -1.763356,1.01284 0.418359,-1.99003 -1.508173,-1.36407 2.021916,-0.21707 z"
     transform="matrix(0.52972833,0,0,0.52972833,56.32445,274.15198)"
     inkscape:transform-center-y="-0.15176017" /><path
     sodipodi:type="star"
     style="fill:#ffffff;fill-opacity:1;stroke:none"
     id="path4075"
     sodipodi:sides="5"
     sodipodi:cx="60"
     sodipodi:cy="452"
     sodipodi:r1="3"
     sodipodi:r2="1.4142137"
     sodipodi:arg1="-1.5707963"
     sodipodi:arg2="-0.9424778"
     inkscape:flatsided="false"
     inkscape:rounded="0"
     inkscape:randomized="0"
     d="m 60,449 0.831254,1.85588 2.021916,0.21707 -1.508173,1.36407 0.418359,1.99003 L 60,453.41421 l -1.763356,1.01284 0.418359,-1.99003 -1.508173,-1.36407 2.021916,-0.21707 z"
     transform="matrix(0.52972833,0,0,0.52972833,64.180986,274.15198)"
     inkscape:transform-center-y="-0.15176017" /><path
     inkscape:transform-center-y="-0.15176017"
     transform="matrix(0.52972833,0,0,0.52972833,72.2163,274.15198)"
     d="m 60,449 0.831254,1.85588 2.021916,0.21707 -1.508173,1.36407 0.418359,1.99003 L 60,453.41421 l -1.763356,1.01284 0.418359,-1.99003 -1.508173,-1.36407 2.021916,-0.21707 z"
     inkscape:randomized="0"
     inkscape:rounded="0"
     inkscape:flatsided="false"
     sodipodi:arg2="-0.9424778"
     sodipodi:arg1="-1.5707963"
     sodipodi:r2="1.4142137"
     sodipodi:r1="3"
     sodipodi:cy="452"
     sodipodi:cx="60"
     sodipodi:sides="5"
     id="path4077"
     style="fill:#ffffff;fill-opacity:1;stroke:none"
     sodipodi:type="star" /><path
     inkscape:transform-center-y="-0.15176017"
     transform="matrix(0.52972833,0,0,0.52972833,80.072835,274.15198)"
     d="m 60,449 0.831254,1.85588 2.021916,0.21707 -1.508173,1.36407 0.418359,1.99003 L 60,453.41421 l -1.763356,1.01284 0.418359,-1.99003 -1.508173,-1.36407 2.021916,-0.21707 z"
     inkscape:randomized="0"
     inkscape:rounded="0"
     inkscape:flatsided="false"
     sodipodi:arg2="-0.9424778"
     sodipodi:arg1="-1.5707963"
     sodipodi:r2="1.4142137"
     sodipodi:r1="3"
     sodipodi:cy="452"
     sodipodi:cx="60"
     sodipodi:sides="5"
     id="path4079"
     style="fill:#ffffff;fill-opacity:1;stroke:none"
     sodipodi:type="star" /><path
     sodipodi:type="star"
     style="fill:#ffffff;fill-opacity:1;stroke:none"
     id="path4081"
     sodipodi:sides="5"
     sodipodi:cx="60"
     sodipodi:cy="452"
     sodipodi:r1="3"
     sodipodi:r2="1.4142137"
     sodipodi:arg1="-1.5707963"
     sodipodi:arg2="-0.9424778"
     inkscape:flatsided="false"
     inkscape:rounded="0"
     inkscape:randomized="0"
     d="m 60,449 0.831254,1.85588 2.021916,0.21707 -1.508173,1.36407 0.418359,1.99003 L 60,453.41421 l -1.763356,1.01284 0.418359,-1.99003 -1.508173,-1.36407 2.021916,-0.21707 z"
     transform="matrix(0.52972833,0,0,0.52972833,48.289136,281.50301)"
     inkscape:transform-center-y="-0.15175485" /><path
     inkscape:transform-center-y="-0.15175485"
     transform="matrix(0.52972833,0,0,0.52972833,56.32445,281.50301)"
     d="m 60,449 0.831254,1.85588 2.021916,0.21707 -1.508173,1.36407 0.418359,1.99003 L 60,453.41421 l -1.763356,1.01284 0.418359,-1.99003 -1.508173,-1.36407 2.021916,-0.21707 z"
     inkscape:randomized="0"
     inkscape:rounded="0"
     inkscape:flatsided="false"
     sodipodi:arg2="-0.9424778"
     sodipodi:arg1="-1.5707963"
     sodipodi:r2="1.4142137"
     sodipodi:r1="3"
     sodipodi:cy="452"
     sodipodi:cx="60"
     sodipodi:sides="5"
     id="path4083"
     style="fill:#ffffff;fill-opacity:1;stroke:none"
     sodipodi:type="star" /><path
     inkscape:transform-center-y="-0.15175485"
     transform="matrix(0.52972833,0,0,0.52972833,64.180986,281.50301)"
     d="m 60,449 0.831254,1.85588 2.021916,0.21707 -1.508173,1.36407 0.418359,1.99003 L 60,453.41421 l -1.763356,1.01284 0.418359,-1.99003 -1.508173,-1.36407 2.021916,-0.21707 z"
     inkscape:randomized="0"
     inkscape:rounded="0"
     inkscape:flatsided="false"
     sodipodi:arg2="-0.9424778"
     sodipodi:arg1="-1.5707963"
     sodipodi:r2="1.4142137"
     sodipodi:r1="3"
     sodipodi:cy="452"
     sodipodi:cx="60"
     sodipodi:sides="5"
     id="path4085"
     style="fill:#ffffff;fill-opacity:1;stroke:none"
     sodipodi:type="star" /><path
     sodipodi:type="star"
     style="fill:#ffffff;fill-opacity:1;stroke:none"
     id="path4087"
     sodipodi:sides="5"
     sodipodi:cx="60"
     sodipodi:cy="452"
     sodipodi:r1="3"
     sodipodi:r2="1.4142137"
     sodipodi:arg1="-1.5707963"
     sodipodi:arg2="-0.9424778"
     inkscape:flatsided="false"
     inkscape:rounded="0"
     inkscape:randomized="0"
     d="m 60,449 0.831254,1.85588 2.021916,0.21707 -1.508173,1.36407 0.418359,1.99003 L 60,453.41421 l -1.763356,1.01284 0.418359,-1.99003 -1.508173,-1.36407 2.021916,-0.21707 z"
     transform="matrix(0.52972833,0,0,0.52972833,72.2163,281.50301)"
     inkscape:transform-center-y="-0.15175485" /><path
     sodipodi:type="star"
     style="fill:#ffffff;fill-opacity:1;stroke:none"
     id="path4089"
     sodipodi:sides="5"
     sodipodi:cx="60"
     sodipodi:cy="452"
     sodipodi:r1="3"
     sodipodi:r2="1.4142137"
     sodipodi:arg1="-1.5707963"
     sodipodi:arg2="-0.9424778"
     inkscape:flatsided="false"
     inkscape:rounded="0"
     inkscape:randomized="0"
     d="m 60,449 0.831254,1.85588 2.021916,0.21707 -1.508173,1.36407 0.418359,1.99003 L 60,453.41421 l -1.763356,1.01284 0.418359,-1.99003 -1.508173,-1.36407 2.021916,-0.21707 z"
     transform="matrix(0.52972833,0,0,0.52972833,80.072835,281.50301)"
     inkscape:transform-center-y="-0.15175485" /><text
     xml:space="preserve"
     style="font-size:40px;font-style:normal;font-weight:normal;line-height:125%;letter-spacing:0px;word-spacing:0px;fill:#000000;fill-opacity:1;stroke:none;font-family:Sans"
     x="-430"
     y="360"
     id="text3274"
     sodipodi:linespacing="125%"
     transform="matrix(0,-1,1,0,0,0)"><tspan
       sodipodi:role="line"
       id="tspan3276"
       x="-430"
       y="360"
       style="font-size:10px;font-weight:bold">TM</tspan></text>
</svg>