<?xml version="1.0" encoding="UTF-8" standalone="no"?>
<!-- Created with Inkscape (http://www.inkscape.org/) -->

<svg
   xmlns:dc="http://purl.org/dc/elements/1.1/"
   xmlns:cc="http://creativecommons.org/ns#"
   xmlns:rdf="http://www.w3.org/1999/02/22-rdf-syntax-ns#"
   xmlns:svg="http://www.w3.org/2000/svg"
   xmlns="http://www.w3.org/2000/svg"
   xmlns:sodipodi="http://sodipodi.sourceforge.net/DTD/sodipodi-0.dtd"
   xmlns:inkscape="http://www.inkscape.org/namespaces/inkscape"
   width="2048"
   height="2048"
   id="svg2"
   version="1.1"
   inkscape:version="0.48.5 r10040"
   sodipodi:docname="white.svg">
  <defs
     id="defs4" />
  <sodipodi:namedview
     id="base"
     pagecolor="#ffffff"
     bordercolor="#666666"
     borderopacity="1.0"
     inkscape:pageopacity="0.0"
     inkscape:pageshadow="2"
     inkscape:zoom="0.590625"
     inkscape:cx="1275.798"
     inkscape:cy="1018.3703"
     inkscape:document-units="px"
     inkscape:current-layer="layer1"
     showgrid="true"
     showguides="true"
     inkscape:guide-bbox="true">
    <inkscape:grid
       type="xygrid"
       id="grid2985"
       empspacing="4"
       visible="true"
       enabled="true"
       snapvisiblegridlinesonly="true" />
    <sodipodi:guide
       orientation="1,0"
       position="1024,1184"
       id="guide2987" />
    <sodipodi:guide
       orientation="0,1"
       position="1024,1024"
       id="guide2989" />
    <sodipodi:guide
       orientation="0,1"
       position="1024,1920"
       id="guide2991" />
    <sodipodi:guide
       orientation="0,1"
       position="1024,128"
       id="guide2993" />
    <sodipodi:guide
       orientation="1,0"
       position="128,640"
       id="guide2995" />
    <sodipodi:guide
       orientation="1,0"
       position="1920,384"
       id="guide2997" />
    <sodipodi:guide
       orientation="1,0"
       position="512,1048"
       id="guide3800" />
    <sodipodi:guide
       orientation="1,0"
       position="1536,1064"
       id="guide3802" />
  </sodipodi:namedview>
  <metadata
     id="metadata7">
    <rdf:RDF>
      <cc:Work
         rdf:about="">
        <dc:format>image/svg+xml</dc:format>
        <dc:type
           rdf:resource="http://purl.org/dc/dcmitype/StillImage" />
        <dc:title></dc:title>
      </cc:Work>
    </rdf:RDF>
  </metadata>
  <g
     inkscape:label="Layer 1"
     inkscape:groupmode="layer"
     id="layer1"
     transform="translate(0,995.63782)">
    <path
       transform="translate(-512,-995.63782)"
       d="m 1132,1024 a 108,108 0 1 1 -216,0 108,108 0 1 1 216,0 z"
       sodipodi:ry="108"
       sodipodi:rx="108"
       sodipodi:cy="1024"
       sodipodi:cx="1024"
       id="path3788"
       style="fill:none;stroke:#000000;stroke-width:10;stroke-miterlimit:4;stroke-opacity:1;stroke-dasharray:none"
       sodipodi:type="arc" />
    <path
       transform="translate(0,-995.63782)"
       d="m 1840,1024 a 816,816 0 1 1 -1632,0 816,816 0 1 1 1632,0 z"
       sodipodi:ry="816"
       sodipodi:rx="816"
       sodipodi:cy="1024"
       sodipodi:cx="1024"
       id="path3826"
       style="fill:none;stroke:#000000;stroke-width:10;stroke-miterlimit:4;stroke-opacity:1;stroke-dasharray:none"
       sodipodi:type="arc" />
    <path
       sodipodi:type="arc"
       style="fill:none;stroke:#000000;stroke-width:10;stroke-miterlimit:4;stroke-opacity:1;stroke-dasharray:none"
       id="path3847"
       sodipodi:cx="1024"
       sodipodi:cy="1024"
       sodipodi:rx="108"
       sodipodi:ry="108"
       d="m 1132,1024 a 108,108 0 1 1 -216,0 108,108 0 1 1 216,0 z"
       transform="translate(0,-995.63782)" />
    <path
       transform="translate(512,-995.63782)"
       d="m 1132,1024 a 108,108 0 1 1 -216,0 108,108 0 1 1 216,0 z"
       sodipodi:ry="108"
       sodipodi:rx="108"
       sodipodi:cy="1024"
       sodipodi:cx="1024"
       id="path3849"
       style="fill:none;stroke:#000000;stroke-width:10;stroke-miterlimit:4;stroke-opacity:1;stroke-dasharray:none"
       sodipodi:type="arc" />
    <g
       id="g3067"
       transform="matrix(1.1209288,0,0,1.1209288,876.33936,380.86408)"
       style="fill:#000000;fill-opacity:1">
      <path
         id="path3069"
         d="m 77.3,15.1 h -28 l -1,0.8 V 40.8 H 56 v -9.4 l 0.7,-0.7 h 20.6 c 5.2,0 7.6,-1.4 7.6,-5 V 20 c 0,-3.5 -2.4,-4.9 -7.6,-4.9 m 0,9.2 c 0,1.7 -1.1,2 -3.6,2 H 56.8 L 56,25.6 v -5.3 l 0.7,-0.7 h 17 c 2.4,0 3.6,0.3 3.6,2 v 2.7 z"
         inkscape:connector-curvature="0"
         style="fill:#000000;fill-opacity:1" />
      <polyline
         id="polyline3071"
         points="99.1,19.8 105.8,29.6 105.4,30.5 90.6,30.5 86.8,35.2 108.8,35.2 110.4,36.1 113.8,40.8    122.7,40.8 103.2,14.8  "
         style="fill:#000000;fill-opacity:1" />
      <polyline
         id="polyline3073"
         points="187.4,35.8 187.4,28.8 188.2,28.1 203.1,28.1 203.1,23.7 179.5,23.7 179.5,40.8 214.3,40.8    214.3,36.4 188.3,36.4  "
         style="fill:#000000;fill-opacity:1" />
      <rect
         id="rect3075"
         height="4.8000002"
         width="35.099998"
         y="15.1"
         x="179.5"
         style="fill:#000000;fill-opacity:1" />
      <path
         id="path3077"
         d="m 140.4,19.7 h 28.3 c -0.4,-3.6 -2.7,-4.6 -8.3,-4.6 h -20.3 c -6.4,0 -8.4,1.2 -8.4,6.1 v 13.6 c 0,4.8 2,6.1 8.4,6.1 h 20.3 c 5.7,0 7.9,-1.1 8.1,-4.8 h -28.1 l -0.8,-0.8 v -15"
         inkscape:connector-curvature="0"
         style="fill:#000000;fill-opacity:1" />
      <path
         id="path3079"
         d="M 29.3,25.1 H 8.8 L 8.2,24.4 V 20 l 0.6,-0.5 h 27.7 l 0.4,-0.9 C 36,16.2 33.5,15 29,15 H 9.7 C 3.3,15 1.3,16.2 1.3,21.1 V 24 c 0,4.8 2,6.1 8.4,6.1 h 20.5 l 0.6,0.6 v 4.6 L 30.3,36 H 6.8 v 0 H 0.7 c 0,0 -0.7,0.4 -0.7,0.5 0.5,3.4 2.8,4.3 8.3,4.3 h 21 c 6.4,0 8.5,-1.2 8.5,-6.1 v -3.5 c 0,-4.8 -2.1,-6.1 -8.5,-6.1"
         inkscape:connector-curvature="0"
         style="fill:#000000;fill-opacity:1" />
      <path
         id="path3081"
         d="m 236.7,15 h -11.6 l -0.6,1.2 12.8,9.4 c 2.4,-1.4 5.1,-2.8 7.9,-4.2"
         inkscape:connector-curvature="0"
         style="fill:#000000;fill-opacity:1" />
      <path
         id="path3083"
         d="m 247.1,32.6 11.3,8.2 H 270 l 0.5,-1.1 -16.8,-12.3 c -2.2,1.7 -4.5,3.4 -6.6,5.2"
         inkscape:connector-curvature="0"
         style="fill:#000000;fill-opacity:1" />
      <path
         id="path3085"
         d="m 235,40.8 h -10.5 l -0.9,-1.4 c 7.1,-6.9 38.9,-36.3 108,-39.4 0,0 -57.9,2 -96.6,40.8"
         inkscape:connector-curvature="0"
         style="fill:#000000;fill-opacity:1" />
    </g>
  </g>
</svg>
